OpenSim_Sub07_CSBaseline_LCS.mot
version=1
nRows=59
nColumns=11
inDegrees=no
endheader
time	Bot_Shank	2nd_Bot_Shank	2nd_Top_Shank	Top_Shank	Bot_Thigh	Med_Thigh	Top_Thigh	BNOx	BNOy	BNOZ
0	9776.00002735	8978.87777907	10400.00000002	10191.86270905	10557.31632279	11212.55458972	12895.99994596	203.52810823	-74.49992698	148.93228448
0.01000000	9776.00001373	8979.59517582	10400.00000001	10191.93018044	10558.44679074	11215.84869562	12895.99997288	203.54154211	-74.49996911	148.96575755
0.02000000	9776.00000108	8979.98225323	10400.00000000	10191.99436003	10559.84375892	11218.73840355	12895.99999786	203.55815443	-74.49999833	148.99701248
0.03000000	9775.99999220	8979.98504908	10399.99999999	10192.04192270	10561.53905992	11221.11361154	12896.00001542	203.57806367	-74.50000344	149.02573833
0.04000000	9775.99998723	8979.65017054	10399.99999997	10192.07133328	10563.47163704	11222.98974674	12896.00002524	203.60069095	-74.49998848	149.05218680
0.05000000	9775.99998546	8979.05807101	10399.99999996	10192.08502446	10565.54917213	11224.42448255	12896.00002873	203.62522267	-74.49996266	149.07679898
0.06000000	9775.99998618	8978.28922935	10399.99999994	10192.08543191	10567.67932346	11225.47552423	12896.00002730	203.65084504	-74.49993514	149.10001606
0.07000000	9775.99998868	8977.42412445	10399.99999994	10192.07499132	10569.76974929	11226.20057703	12896.00002237	203.67674430	-74.49991513	149.12227927
0.08000000	9775.99999224	8976.54323520	10399.99999994	10192.05613836	10571.72810790	11226.65734619	12896.00001533	203.70210668	-74.49991180	149.14402982
0.09000000	9775.99999615	8975.72704047	10399.99999996	10192.03130871	10573.46205756	11226.90353697	12896.00000761	203.72611838	-74.49993435	149.16570892
0.10000000	9775.99999969	8975.05601916	10400.00000000	10192.00293805	10574.87925655	11226.99685461	12896.00000061	203.74796565	-74.49999196	149.18775779
0.11000000	9776.00000226	8974.59834486	10400.00000005	10191.97346587	10575.90684483	11226.98937177	12895.99999553	203.76693576	-74.50009013	149.21051723
0.12000000	9776.00000383	8974.35563466	10400.00000011	10191.94535230	10576.57733457	11226.90269571	12895.99999244	203.78286261	-74.50021440	149.23378490
0.13000000	9776.00000455	8974.30710635	10400.00000017	10191.92106441	10576.95870050	11226.74818068	12895.99999103	203.79576406	-74.50034360	149.25717568
0.14000000	9776.00000458	8974.43196082	10400.00000022	10191.90306929	10577.11894409	11226.53717319	12895.99999097	203.80565810	-74.50045655	149.28030432
0.15000000	9776.00000409	8974.70939897	10400.00000026	10191.89383402	10577.12606679	11226.28101977	12895.99999194	203.81256274	-74.50053206	149.30278556
0.16000000	9776.00000323	8975.11862170	10400.00000027	10191.89582567	10577.04807007	11225.99106693	12895.99999363	203.81649595	-74.50054895	149.32423413
0.17000000	9776.00000217	8975.63882989	10400.00000023	10191.91151133	10576.95295537	11225.67866120	12895.99999572	203.81747575	-74.50048605	149.34426478
0.18000000	9776.00000107	8976.24922445	10400.00000015	10191.94335807	10576.90872416	11225.35514910	12895.99999790	203.81552013	-74.50032217	149.36249226
0.19000000	9776.00000009	8976.92900628	10400.00000002	10191.99383298	10576.98337790	11225.03187715	12895.99999983	203.81064707	-74.50003614	149.37853129
0.20000000	9775.99999935	8977.66040609	10399.99999982	10192.06385100	10577.22971976	11224.72071132	12896.00000126	203.80293813	-74.49961743	149.39203134
0.21000000	9775.99999888	8978.44204215	10399.99999958	10192.14593194	10577.61834880	11224.43632724	12896.00000217	203.79281857	-74.49911327	149.40282960
0.22000000	9775.99999863	8979.27804793	10399.99999933	10192.22977024	10578.09219862	11224.19434609	12896.00000265	203.78082933	-74.49859027	149.41082644
0.23000000	9775.99999857	8980.17256104	10399.99999911	10192.30505824	10578.59418196	11224.01038978	12896.00000275	203.76751144	-74.49811508	149.41592228
0.24000000	9775.99999866	8981.12971909	10399.99999893	10192.36148826	10579.06721158	11223.90008021	12896.00000257	203.75340593	-74.49775434	149.41801754
0.25000000	9775.99999885	8982.15365971	10399.99999885	10192.38875263	10579.45420022	11223.87903928	12896.00000218	203.73905382	-74.49757470	149.41701265
0.26000000	9775.99999912	8983.24852049	10399.99999888	10192.37654366	10579.69806063	11223.96288889	12896.00000165	203.72499614	-74.49764281	149.41280803
0.27000000	9775.99999943	8984.41843906	10399.99999906	10192.31455368	10579.74170556	11224.16725095	12896.00000106	203.71177393	-74.49802529	149.40530410
0.28000000	9775.99999973	8985.66755302	10399.99999943	10192.19247502	10579.52804777	11224.50774735	12896.00000048	203.69992821	-74.49878881	149.39440128
0.29000000	9776	8987	10400	10192	10579	11225	12896	203.69000000	-74.50000000	149.38000000
0.30000000	9776.00000020	8988.40791731	10400.00000079	10191.74268812	10578.13236439	11225.64924665	12895.99999967	203.68242237	-74.50166044	149.36212852
0.31000000	9776.00000033	8989.83544110	10400.00000166	10191.48956757	10577.02750065	11226.41918842	12895.99999948	203.67719647	-74.50351144	149.34132648
0.32000000	9776.00000040	8991.21470723	10400.00000248	10191.32553371	10575.81965788	11227.26314231	12895.99999942	203.67421549	-74.50522926	149.31826138
0.33000000	9776.00000041	8992.47785156	10400.00000307	10191.33548190	10574.64308517	11228.13442528	12895.99999944	203.67337261	-74.50649014	149.29360070
0.34000000	9776.00000037	8993.55700994	10400.00000330	10191.60430752	10573.63203162	11228.98635431	12895.99999954	203.67456102	-74.50697033	149.26801193
0.35000000	9776.00000029	8994.38431824	10400.00000300	10192.21690592	10572.92074633	11229.77224638	12895.99999968	203.67767392	-74.50634608	149.24216257
0.36000000	9776.00000017	8994.89191231	10400.00000203	10193.25817247	10572.64347839	11230.44541847	12895.99999983	203.68260447	-74.50429364	149.21672010
0.37000000	9776.00000002	8995.01192801	10400.00000023	10194.81300253	10572.93447690	11230.95918755	12895.99999999	203.68924588	-74.50048926	149.19235202
0.38000000	9775.99999985	8994.69802828	10399.99999756	10196.94363916	10573.88547301	11231.27536781	12896.00000011	203.69743658	-74.49470325	149.16961945
0.39000000	9775.99999968	8994.02031136	10399.99999454	10199.58980406	10575.35822761	11231.40173283	12896.00000020	203.70671895	-74.48721475	149.14850827
0.40000000	9775.99999955	8993.08806125	10399.99999192	10202.64998493	10577.13710609	11231.36152370	12896.00000024	203.71653572	-74.47847411	149.12881076
0.41000000	9775.99999948	8992.01059151	10399.99999042	10206.02263835	10579.00641550	11231.17799314	12896.00000025	203.72632955	-74.46893182	149.11031905
0.42000000	9775.99999952	8990.89721568	10399.99999078	10209.60622094	10580.75046292	11230.87439385	12896.00000021	203.73554311	-74.45903838	149.09282526
0.43000000	9775.99999968	8989.85724733	10399.99999373	10213.29918928	10582.15355540	11230.47397856	12896.00000013	203.74361904	-74.44924428	149.07612154
0.44000000	9776	8989	10400	10217	10583	11230	12896	203.75000000	-74.44000000	149.06000000
0.45000000	9776.00000049	8988.40933116	10400.00000988	10220.61935539	10583.13588049	11229.47536594	12895.99999982	203.75428072	-74.43165287	149.04429962
0.46000000	9776.00000108	8988.06727400	10400.00002189	10224.11694055	10582.65438746	11228.92160441	12895.99999962	203.75666418	-74.42413756	149.02904672
0.47000000	9776.00000168	8987.93040562	10400.00003409	10227.46468632	10581.71048818	11228.35989849	12895.99999942	203.75750544	-74.41728555	149.01431446
0.48000000	9776.00000218	8987.95530313	10400.00004455	10230.63452350	10580.45914993	11227.81143128	12895.99999926	203.75715954	-74.41092835	149.00017602
0.49000000	9776.00000251	8988.09854362	10400.00005136	10233.59838290	10579.05534002	11227.29738585	12895.99999916	203.75598154	-74.40489744	148.98670454
0.50000000	9776.00000257	8988.31670421	10400.00005258	10236.32819534	10577.65402571	11226.83894529	12895.99999915	203.75432650	-74.39902433	148.97397319
0.51000000	9776.00000225	8988.56636200	10400.00004628	10238.79589163	10576.41017429	11226.45729269	12895.99999926	203.75254945	-74.39314050	148.96205515
0.52000000	9776.00000149	8988.80409410	10400.00003053	10240.97340258	10575.47875305	11226.17361114	12895.99999952	203.75100546	-74.38707746	148.95102356
0.53000000	9776.00000017	8988.98647760	10400.00000341	10242.83265902	10575.01472928	11226.00908372	12895.99999995	203.75004957	-74.38066669	148.94095160
0.54000000	9775.99999824	8989.07657312	10399.99996381	10244.35797350	10575.14009282	11225.97968228	12896.00000057	203.74999156	-74.37378071	148.93183970
0.55000000	9775.99999588	8989.07250909	10399.99991505	10245.60062872	10575.79846595	11226.07319235	12896.00000133	203.75089622	-74.36651391	148.92329493
0.56000000	9775.99999330	8988.98421586	10399.99986196	10246.63444592	10576.87344205	11226.26791342	12896.00000216	203.75274593	-74.35903531	148.91479199
0.57000000	9775.99999075	8988.82163267	10399.99980936	10247.53326330	10578.24856928	11226.54213784	12896.00000297	203.75552300	-74.35151402	148.90580546
0.58000000	9775.99998846	8988.59469879	10399.99976208	10248.37091907	10579.80739581	11226.87415798	12896.00000371	203.75920974	-74.34411915	148.89580993
